<svg width="323" height="321" xmlns="http://www.w3.org/2000/svg" xmlns:xlink="http://www.w3.org/1999/xlink" xml:space="preserve" overflow="hidden"><g transform="translate(-189 -188)"><g><g><g><g><g><path d="M358.023 251.812C388.126 261.684 414.681 279.308 435.478 302.266 438.903 299.199 442.966 297.401 447.339 297.401 448.623 297.401 449.877 297.587 451.097 297.882 458.796 276.394 461.532 253.246 458.014 229.71 457.996 229.564 457.955 229.427 457.934 229.282 443.883 216.616 427.586 206.408 409.706 199.304 390.616 213.476 373.073 231.133 358.023 251.812Z" stroke="#009243" stroke-width="2.29281" stroke-linecap="butt" stroke-linejoin="miter" stroke-miterlimit="4" stroke-opacity="1" fill="#009243" fill-rule="nonzero" fill-opacity="1"/><path d="M285.236 243.709C290.74 243.191 296.293 242.832 301.935 242.832 316.232 242.832 330.122 244.529 343.45 247.681 358.855 226.715 376.843 208.889 396.387 194.692 381.85 190.352 366.449 188 350.498 188 331.913 188 314.078 191.197 297.477 197.008 288.558 209.083 281.187 222.347 275.485 236.467 279.692 237.934 283.126 240.435 285.236 243.709Z" stroke="#009243" stroke-width="2.29281" stroke-linecap="butt" stroke-linejoin="miter" stroke-miterlimit="4" stroke-opacity="1" fill="#009243" fill-rule="nonzero" fill-opacity="1"/><path d="M267.402 271.747C266.65 271.925 265.903 272.07 265.159 272.191 263.373 282.319 262.387 292.721 262.387 303.361 262.387 334.006 270.178 362.792 283.749 388.005 286.675 387.625 289.714 387.625 292.785 387.965 294.418 356.31 302.306 323.515 317.206 291.84 321.979 281.688 327.322 272.038 333.117 262.868 320.221 259.93 306.796 258.378 293.003 258.378 290.534 258.378 288.097 258.52 285.652 258.629 282.577 264.63 275.909 269.722 267.402 271.747Z" stroke="#009243" stroke-width="2.29281" stroke-linecap="butt" stroke-linejoin="miter" stroke-miterlimit="4" stroke-opacity="1" fill="#009243" fill-rule="nonzero" fill-opacity="1"/><path d="M347.807 266.946C342.246 275.836 337.097 285.172 332.486 294.98 317.324 327.213 309.447 360.593 308.02 392.762 313.901 395.958 318.637 400.383 321.963 405.431 365.794 396.096 402.707 372.426 427.233 341.006 425.976 337.126 425.261 332.83 425.261 328.296 425.261 324.622 425.747 321.11 426.582 317.845 405.479 294.543 378.455 276.742 347.807 266.946Z" stroke="#009243" stroke-width="2.29281" stroke-linecap="butt" stroke-linejoin="miter" stroke-miterlimit="4" stroke-opacity="1" fill="#009243" fill-rule="nonzero" fill-opacity="1"/><path d="M259.481 405.221C261.381 400.727 264.436 397.025 268.218 394.176 254.72 369.003 247.01 340.262 247.01 309.698 247.01 296.507 248.586 283.705 251.314 271.334 247.729 270.179 244.674 268.287 242.467 265.81 229.14 269.706 216.426 275.032 204.565 281.716 195.242 302.056 190 324.663 190 348.502 190 362.202 191.726 375.493 194.955 388.183 214.037 398.532 235.557 405.467 258.406 408.296 258.701 407.262 259.053 406.235 259.481 405.221Z" stroke="#009243" stroke-width="2.29281" stroke-linecap="butt" stroke-linejoin="miter" stroke-miterlimit="4" stroke-opacity="1" fill="#009243" fill-rule="nonzero" fill-opacity="1"/><path d="M447.339 359.183C444.165 359.183 441.15 358.233 438.426 356.544 413.02 389.739 373.889 414.52 327.346 423.188 327.273 426.521 326.63 429.848 325.285 433.038 324.618 434.608 323.781 436.064 322.856 437.449 353.832 464.906 394.333 481.814 438.823 482.492 451.521 474.107 462.949 463.964 472.769 452.415 473.117 447.895 473.36 443.346 473.36 438.735 473.36 409.577 466.296 382.121 453.995 357.757 451.892 358.678 449.657 359.183 447.339 359.183Z" stroke="#009243" stroke-width="2.29281" stroke-linecap="butt" stroke-linejoin="miter" stroke-miterlimit="4" stroke-opacity="1" fill="#009243" fill-rule="nonzero" fill-opacity="1"/><path d="M312.046 447.707C316.499 469.645 324.307 490.134 335.202 508.253 340.242 508.725 345.337 509 350.502 509 378.775 509 405.318 501.665 428.388 488.834 427.657 488.841 426.942 488.903 426.215 488.903 382.8 488.899 343.046 473.401 312.046 447.707Z" stroke="#009243" stroke-width="2.29281" stroke-linecap="butt" stroke-linejoin="miter" stroke-miterlimit="4" stroke-opacity="1" fill="#009243" fill-rule="nonzero" fill-opacity="1"/><path d="M280.475 447.315C269.148 442.53 261.235 433.409 258.467 423.447 236.911 419.544 216.737 411.946 198.927 401.289 217.577 454.84 263.781 495.465 320.56 506.184 310.328 489.453 302.807 470.629 298.115 450.507 292.381 450.787 286.335 449.792 280.475 447.315Z" stroke="#009243" stroke-width="2.29281" stroke-linecap="butt" stroke-linejoin="miter" stroke-miterlimit="4" stroke-opacity="1" fill="#009243" fill-rule="nonzero" fill-opacity="1"/><path d="M258.859 235.868C260.366 235.509 261.865 235.274 263.345 235.129 268.538 223.842 274.822 213.165 282.136 203.276 253.052 216.992 228.764 239.178 212.437 266.667 220.851 261.846 229.705 257.723 238.895 254.284 240.023 246.125 247.931 238.471 258.859 235.868Z" stroke="#009243" stroke-width="2.29281" stroke-linecap="butt" stroke-linejoin="miter" stroke-miterlimit="4" stroke-opacity="1" fill="#009243" fill-rule="nonzero" fill-opacity="1"/><path d="M511 348.502C511 305.608 494.141 266.675 466.727 237.881 467.33 240.706 467.86 243.563 468.293 246.456 471.425 267.439 469.582 288.118 463.694 307.588 467.239 313.068 469.419 320.318 469.419 328.296 469.419 335.129 467.816 341.426 465.127 346.542 476.084 369.811 482.282 395.764 482.282 423.192 482.282 429.344 481.94 435.408 481.337 441.407 499.987 415.178 511 383.135 511 348.502Z" stroke="#009243" stroke-width="2.29281" stroke-linecap="butt" stroke-linejoin="miter" stroke-miterlimit="4" stroke-opacity="1" fill="#009243" fill-rule="nonzero" fill-opacity="1"/><path d="M286.164 433.836C295.639 437.841 306.101 434.51 309.531 426.395 312.962 418.281 308.062 408.456 298.586 404.451 289.111 400.445 278.649 403.776 275.218 411.89 271.788 420.005 276.688 429.83 286.164 433.836Z" stroke="#009243" stroke-width="2.29281" stroke-linecap="butt" stroke-linejoin="miter" stroke-miterlimit="4" stroke-opacity="1" fill="#009243" fill-rule="nonzero" fill-opacity="1"/><path d="M447.339 341.381C452.502 341.381 456.689 335.521 456.689 328.292 456.689 321.063 452.502 315.202 447.339 315.202 442.173 315.202 437.986 321.063 437.986 328.292 437.986 335.521 442.173 341.381 447.339 341.381Z" stroke="#009243" stroke-width="2.29281" stroke-linecap="butt" stroke-linejoin="miter" stroke-miterlimit="4" stroke-opacity="1" fill="#009243" fill-rule="nonzero" fill-opacity="1"/><path d="M264.945 261.437C270.585 260.093 274.343 255.585 273.337 251.369 272.332 247.153 266.945 244.825 261.305 246.17 255.665 247.515 251.907 252.022 252.912 256.238 253.918 260.455 259.305 262.782 264.945 261.437Z" stroke="#009243" stroke-width="2.29281" stroke-linecap="butt" stroke-linejoin="miter" stroke-miterlimit="4" stroke-opacity="1" fill="#009243" fill-rule="nonzero" fill-opacity="1"/></g></g></g></g></g></g></svg>