<svg width="3346" height="806" xmlns="http://www.w3.org/2000/svg" xmlns:xlink="http://www.w3.org/1999/xlink" xml:space="preserve" overflow="hidden"><g transform="translate(-687 -912)"><g><g><g><g><g><path d="M418.225 158.833C493.155 183.407 559.253 227.275 611.018 284.42 619.544 276.786 629.658 272.309 640.541 272.309 643.737 272.309 646.859 272.772 649.895 273.506 669.06 220.022 675.868 162.404 667.114 103.82 667.068 103.458 666.965 103.116 666.914 102.754 631.94 71.2286 591.374 45.8196 546.87 28.1358 499.352 63.4126 455.685 107.361 418.225 158.833Z" stroke="#009243" stroke-width="5.70702" stroke-linecap="butt" stroke-linejoin="miter" stroke-miterlimit="4" stroke-opacity="1" fill="#009243" fill-rule="nonzero" fill-opacity="1" transform="matrix(1 0 0 1 688 916)"/><path d="M237.052 138.664C250.752 137.377 264.573 136.481 278.616 136.481 314.204 136.481 348.777 140.706 381.952 148.552 420.297 96.3657 465.07 51.9952 513.716 16.6578 477.533 5.85439 439.198 0 399.495 0 353.234 0 308.843 7.95673 267.521 22.4216 245.32 52.478 226.972 85.4918 212.779 120.638 223.251 124.29 231.801 130.516 237.052 138.664Z" stroke="#009243" stroke-width="5.70702" stroke-linecap="butt" stroke-linejoin="miter" stroke-miterlimit="4" stroke-opacity="1" fill="#009243" fill-rule="nonzero" fill-opacity="1" transform="matrix(1 0 0 1 688 916)"/><path d="M192.661 208.454C190.79 208.896 188.929 209.259 187.078 209.56 182.632 234.768 180.178 260.66 180.178 287.146 180.178 363.423 199.571 435.074 233.35 497.832 240.632 496.887 248.197 496.887 255.842 497.732 259.906 418.939 279.541 337.31 316.629 258.467 328.508 233.199 341.806 209.178 356.231 186.354 324.133 179.041 290.717 175.178 256.385 175.178 250.239 175.178 244.173 175.531 238.088 175.802 230.433 190.74 213.835 203.414 192.661 208.454Z" stroke="#009243" stroke-width="5.70702" stroke-linecap="butt" stroke-linejoin="miter" stroke-miterlimit="4" stroke-opacity="1" fill="#009243" fill-rule="nonzero" fill-opacity="1" transform="matrix(1 0 0 1 688 916)"/><path d="M392.796 196.504C378.955 218.633 366.139 241.87 354.662 266.283 316.92 346.514 297.315 429.602 293.764 509.672 308.4 517.628 320.189 528.643 328.468 541.207 437.569 517.971 529.448 459.055 590.495 380.846 587.368 371.189 585.587 360.496 585.587 349.21 585.587 340.066 586.797 331.325 588.874 323.197 536.349 265.197 469.084 220.886 392.796 196.504Z" stroke="#009243" stroke-width="5.70702" stroke-linecap="butt" stroke-linejoin="miter" stroke-miterlimit="4" stroke-opacity="1" fill="#009243" fill-rule="nonzero" fill-opacity="1" transform="matrix(1 0 0 1 688 916)"/><path d="M172.945 540.683C177.673 529.498 185.278 520.284 194.693 513.192 161.095 450.534 141.903 378.994 141.903 302.917 141.903 270.085 145.826 238.218 152.616 207.427 143.693 204.55 136.089 199.842 130.597 193.676 97.4221 203.373 65.7759 216.631 36.2528 233.269 13.0466 283.896 0 340.166 0 399.505 0 433.605 4.29521 466.689 12.3324 498.274 59.8314 524.035 113.396 541.297 170.269 548.338 171.004 545.763 171.879 543.208 172.945 540.683Z" stroke="#009243" stroke-width="5.70702" stroke-linecap="butt" stroke-linejoin="miter" stroke-miterlimit="4" stroke-opacity="1" fill="#009243" fill-rule="nonzero" fill-opacity="1" transform="matrix(1 0 0 1 688 916)"/><path d="M640.541 426.091C632.642 426.091 625.138 423.727 618.357 419.522 555.118 502.147 457.717 563.829 341.866 585.404 341.685 593.703 340.086 601.984 336.736 609.922 335.077 613.832 332.995 617.456 330.691 620.903 407.794 689.246 508.605 731.33 619.345 733.02 650.951 712.149 679.395 686.9 703.839 658.153 704.706 646.905 705.311 635.582 705.311 624.104 705.311 551.527 687.728 483.186 657.109 422.54 651.875 424.833 646.311 426.091 640.541 426.091Z" stroke="#009243" stroke-width="5.70702" stroke-linecap="butt" stroke-linejoin="miter" stroke-miterlimit="4" stroke-opacity="1" fill="#009243" fill-rule="nonzero" fill-opacity="1" transform="matrix(1 0 0 1 688 916)"/><path d="M303.783 646.437C314.869 701.042 334.303 752.042 361.422 797.139 373.966 798.315 386.65 799 399.505 799 469.878 799 535.946 780.743 593.372 748.806 591.551 748.823 589.77 748.977 587.961 748.977 479.897 748.965 380.947 710.391 303.783 646.437Z" stroke="#009243" stroke-width="5.70702" stroke-linecap="butt" stroke-linejoin="miter" stroke-miterlimit="4" stroke-opacity="1" fill="#009243" fill-rule="nonzero" fill-opacity="1" transform="matrix(1 0 0 1 688 916)"/><path d="M225.202 645.461C197.007 633.55 177.311 610.847 170.42 586.049 116.765 576.336 66.5504 557.422 22.2204 530.897 68.6426 664.191 183.648 765.311 324.977 791.992 299.508 750.346 280.788 703.491 269.109 653.405 254.836 654.101 239.787 651.624 225.202 645.461Z" stroke="#009243" stroke-width="5.70702" stroke-linecap="butt" stroke-linejoin="miter" stroke-miterlimit="4" stroke-opacity="1" fill="#009243" fill-rule="nonzero" fill-opacity="1" transform="matrix(1 0 0 1 688 916)"/><path d="M171.396 119.149C175.148 118.254 178.88 117.67 182.562 117.309 195.488 89.2135 211.129 62.6376 229.336 38.023 156.941 72.1634 96.4866 127.387 55.848 195.809 76.7907 183.809 98.8306 173.548 121.705 164.988 124.511 144.679 144.197 125.627 171.396 119.149Z" stroke="#009243" stroke-width="5.70702" stroke-linecap="butt" stroke-linejoin="miter" stroke-miterlimit="4" stroke-opacity="1" fill="#009243" fill-rule="nonzero" fill-opacity="1" transform="matrix(1 0 0 1 688 916)"/><path d="M799 399.505C799 292.738 757.035 195.829 688.801 124.158 690.302 131.189 691.62 138.301 692.699 145.504 700.495 197.73 695.906 249.202 681.25 297.667 690.073 311.307 695.501 329.353 695.501 349.209 695.501 366.219 691.512 381.891 684.817 394.626 712.092 452.546 727.518 517.145 727.518 585.416 727.518 600.728 726.668 615.823 725.167 630.753 771.589 565.469 799 485.71 799 399.505Z" stroke="#009243" stroke-width="5.70702" stroke-linecap="butt" stroke-linejoin="miter" stroke-miterlimit="4" stroke-opacity="1" fill="#009243" fill-rule="nonzero" fill-opacity="1" transform="matrix(1 0 0 1 688 916)"/><path d="M239.36 611.908C262.946 621.879 288.987 613.586 297.525 593.389 306.064 573.191 293.866 548.737 270.281 538.766 246.696 528.795 220.655 537.086 212.117 557.283 203.578 577.483 215.776 601.938 239.36 611.908Z" stroke="#009243" stroke-width="5.70702" stroke-linecap="butt" stroke-linejoin="miter" stroke-miterlimit="4" stroke-opacity="1" fill="#009243" fill-rule="nonzero" fill-opacity="1" transform="matrix(1 0 0 1 688 916)"/><path d="M640.541 381.78C653.394 381.78 663.815 367.194 663.815 349.199 663.815 331.205 653.394 316.618 640.541 316.618 627.683 316.618 617.262 331.205 617.262 349.199 617.262 367.194 627.683 381.78 640.541 381.78Z" stroke="#009243" stroke-width="5.70702" stroke-linecap="butt" stroke-linejoin="miter" stroke-miterlimit="4" stroke-opacity="1" fill="#009243" fill-rule="nonzero" fill-opacity="1" transform="matrix(1 0 0 1 688 916)"/><path d="M186.545 182.793C200.584 179.446 209.937 168.225 207.435 157.731 204.933 147.237 191.524 141.443 177.485 144.79 163.446 148.137 154.093 159.358 156.595 169.852 159.097 180.346 172.506 186.14 186.545 182.793Z" stroke="#009243" stroke-width="5.70702" stroke-linecap="butt" stroke-linejoin="miter" stroke-miterlimit="4" stroke-opacity="1" fill="#009243" fill-rule="nonzero" fill-opacity="1" transform="matrix(1 0 0 1 688 916)"/></g></g></g></g><text fill="#000000" fill-opacity="1" font-family="Helvetica,Helvetica_MSFontService,sans-serif" font-style="normal" font-variant="normal" font-weight="400" font-stretch="normal" font-size="330" text-anchor="start" direction="ltr" writing-mode="lr-tb" unicode-bidi="normal" text-decoration="none" transform="matrix(1 0 0 1 1520.2 1421)">GartenSpace24</text></g></g></svg>